# xmcd CD database file
#
# Track frame offsets:
#	150
#	25145
#	48222
#	76997
#	82093
#	106169
#	129327
#	153511
#	176210
#	200367
#	231085
#
# Disc length: 3233 seconds
#
# Revision: 17
# Processed by: cddbd v1.5.2PL0 Copyright (c) Steve Scherf et al.
# Submitted via: CDex 1.70beta2
#
DISCID=830c9f0b
DTITLE=柴田淳 - ため息
DYEAR=2003
DGENRE=JPop
TTITLE0=夢
TTITLE1=隣の部屋
TTITLE2=片思い
TTITLE3=サーカス -Piano Solo-
TTITLE4=拝啓、王子様☆
TTITLE5=月光浴
TTITLE6=美しい人
TTITLE7=なにもない場所 -引き語り-
TTITLE8=ため息
TTITLE9=月の窓
TTITLE10=めじろの心 -Piano Solo-
EXTD=YEAR: 2003
EXTT0=
EXTT1=
EXTT2=
EXTT3=
EXTT4=
EXTT5=
EXTT6=
EXTT7=
EXTT8=
EXTT9=
EXTT10=
PLAYORDER=
